<svg xmlns="http://www.w3.org/2000/svg" xmlns:xlink="http://www.w3.org/1999/xlink" width="1400" zoomAndPan="magnify" viewBox="0 0 1050 1049.999947" height="1400" preserveAspectRatio="xMidYMid meet" version="1.0"><defs><g/></defs><g fill="#ffde59" fill-opacity="1"><g transform="translate(305.442709, 618.51174)"><g><path d="M 537.296875 80.453125 C 537.554688 80.921875 537.519531 81.585938 537.1875 82.453125 L 536.984375 83.046875 C 536.859375 83.378906 536.757812 83.675781 536.6875 83.9375 C 536.019531 84.8125 535.253906 85.429688 534.390625 85.796875 C 533.523438 86.160156 532.660156 86.34375 531.796875 86.34375 C 531.398438 86.34375 530.984375 86.304688 530.546875 86.234375 C 530.117188 86.171875 529.804688 86.070312 529.609375 85.9375 C 527.410156 83.144531 524.582031 81.234375 521.125 80.203125 C 517.664062 79.171875 514.109375 78.457031 510.453125 78.0625 C 508.253906 77.726562 506.125 77.359375 504.0625 76.953125 C 457.550781 67.109375 409.972656 59.488281 361.328125 54.09375 C 336.441406 51.632812 311.390625 49.507812 286.171875 47.71875 C 266.671875 46.382812 246.972656 45.515625 227.078125 45.109375 C 213.972656 44.984375 201 44.617188 188.15625 44.015625 C 178.632812 43.679688 168.914062 43.679688 159 44.015625 C 155.875 44.148438 152.847656 44.21875 149.921875 44.21875 C 140.941406 44.351562 131.957031 44.488281 122.96875 44.625 C 98.550781 44.945312 74.128906 45.546875 49.703125 46.421875 C 28.609375 47.148438 7.382812 48.394531 -13.96875 50.15625 C -35.332031 51.914062 -56.925781 54.628906 -78.75 58.296875 C -93.457031 60.492188 -108.296875 63.921875 -123.265625 68.578125 C -123.804688 68.703125 -124.441406 68.929688 -125.171875 69.265625 C -126.828125 69.867188 -128.488281 70.351562 -130.15625 70.71875 C -131.820312 71.082031 -133.453125 71.097656 -135.046875 70.765625 C -136.910156 70.503906 -137.742188 69.472656 -137.546875 67.671875 C -137.484375 67.140625 -137.21875 66.539062 -136.75 65.875 C -136.28125 65.207031 -135.75 64.644531 -135.15625 64.1875 C -131.6875 61.988281 -128.222656 59.957031 -124.765625 58.09375 C -92.960938 40.195312 -61.457031 21.53125 -30.25 2.09375 C 24.382812 -31.3125 77.921875 -66.742188 130.359375 -104.203125 C 162.960938 -127.492188 195.734375 -150.351562 228.671875 -172.78125 C 249.703125 -187.082031 270.695312 -201.554688 291.65625 -216.203125 C 301.96875 -223.390625 312.179688 -230.707031 322.296875 -238.15625 C 323.703125 -239.21875 325.003906 -240.179688 326.203125 -241.046875 C 326.734375 -241.316406 327.195312 -241.617188 327.59375 -241.953125 C 328.59375 -242.679688 329.570312 -243.445312 330.53125 -244.25 C 331.5 -245.050781 332.179688 -246.015625 332.578125 -247.140625 C 331.585938 -248.335938 330.34375 -249.085938 328.84375 -249.390625 C 327.34375 -249.691406 325.695312 -249.84375 323.90625 -249.84375 C 323.164062 -249.84375 322.363281 -249.84375 321.5 -249.84375 C 303.539062 -251.164062 285.425781 -252.039062 267.15625 -252.46875 C 248.882812 -252.90625 230.269531 -252.691406 211.3125 -251.828125 C 195.46875 -251.234375 179.460938 -250.269531 163.296875 -248.9375 C 147.128906 -247.601562 130.789062 -245.539062 114.28125 -242.75 C 113.488281 -242.613281 112.726562 -242.484375 112 -242.359375 C 109 -241.890625 106.035156 -241.253906 103.109375 -240.453125 C 100.179688 -239.648438 97.253906 -238.382812 94.328125 -236.65625 C 93.660156 -233.726562 93.875 -231.347656 94.96875 -229.515625 C 96.070312 -227.691406 97.519531 -226.046875 99.3125 -224.578125 C 100.175781 -223.710938 101.007812 -222.816406 101.8125 -221.890625 C 106.46875 -216.628906 112.054688 -212.238281 118.578125 -208.71875 C 118.773438 -208.582031 118.921875 -208.296875 119.015625 -207.859375 C 119.117188 -207.429688 119.171875 -207.082031 119.171875 -206.8125 C 118.847656 -205.882812 118.382812 -205.285156 117.78125 -205.015625 C 117.1875 -204.753906 116.554688 -204.523438 115.890625 -204.328125 C 112.097656 -203.585938 108.9375 -203.953125 106.40625 -205.421875 C 101.476562 -208.347656 96.914062 -211.609375 92.71875 -215.203125 C 88.53125 -218.796875 84.941406 -222.953125 81.953125 -227.671875 C 77.160156 -235.265625 80.453125 -241.023438 91.828125 -244.953125 C 98.015625 -247.140625 104.269531 -248.832031 110.59375 -250.03125 C 119.78125 -251.96875 128.863281 -253.429688 137.84375 -254.421875 C 146.820312 -255.421875 155.804688 -256.390625 164.796875 -257.328125 C 165.660156 -257.328125 166.554688 -257.394531 167.484375 -257.53125 C 190.515625 -259.59375 213.222656 -260.6875 235.609375 -260.8125 C 258.003906 -260.945312 280.210938 -260.71875 302.234375 -260.125 C 314.347656 -259.71875 326.328125 -258.851562 338.171875 -257.53125 C 341.097656 -257.195312 344.078125 -257.328125 347.109375 -257.921875 C 350.140625 -258.523438 353.25 -259.988281 356.4375 -262.3125 C 357.300781 -263.039062 358.347656 -263.585938 359.578125 -263.953125 C 360.816406 -264.328125 361.96875 -264.679688 363.03125 -265.015625 C 363.5625 -265.140625 363.992188 -265.269531 364.328125 -265.40625 C 365.722656 -265.675781 366.753906 -265.441406 367.421875 -264.703125 C 368.085938 -263.972656 368.019531 -262.8125 367.21875 -261.21875 C 366.488281 -259.625 366.140625 -258.390625 366.171875 -257.515625 C 366.203125 -256.648438 366.984375 -256.117188 368.515625 -255.921875 C 369.179688 -255.796875 369.878906 -255.734375 370.609375 -255.734375 C 373.609375 -255.460938 376.503906 -254.960938 379.296875 -254.234375 C 380.890625 -253.765625 381.253906 -252.5 380.390625 -250.4375 C 379.929688 -249.707031 379.367188 -249.125 378.703125 -248.6875 C 378.035156 -248.257812 377.398438 -248.046875 376.796875 -248.046875 C 373.410156 -247.773438 369.984375 -247.570312 366.515625 -247.4375 C 362.859375 -247.4375 359.929688 -247.4375 357.734375 -247.4375 C 355.140625 -247.570312 353.109375 -247.519531 351.640625 -247.28125 C 350.179688 -247.050781 348.753906 -246.503906 347.359375 -245.640625 C 345.960938 -244.773438 343.929688 -243.3125 341.265625 -241.25 C 339.273438 -239.789062 336.679688 -237.894531 333.484375 -235.5625 C 308.265625 -217.394531 282.8125 -199.53125 257.125 -181.96875 C 248.46875 -175.976562 239.847656 -170.054688 231.265625 -164.203125 C 193.472656 -137.847656 155.644531 -111.328125 117.78125 -84.640625 C 68.601562 -50.234375 18.660156 -17.660156 -32.046875 13.078125 C -43.484375 20.066406 -54.992188 27.019531 -66.578125 33.9375 C -73.566406 38.125 -80.550781 42.285156 -87.53125 46.421875 C -88 46.679688 -88.5 46.976562 -89.03125 47.3125 C -90.09375 47.90625 -91.125 48.566406 -92.125 49.296875 C -93.125 50.035156 -93.859375 51.035156 -94.328125 52.296875 C -91.128906 51.898438 -87.898438 51.46875 -84.640625 51 C -76.921875 49.875 -69.101562 48.710938 -61.1875 47.515625 C -36.5 43.984375 -11.941406 41.488281 12.484375 40.03125 C 43.148438 38.300781 73.671875 37.101562 104.046875 36.4375 C 134.429688 35.769531 164.660156 35.503906 194.734375 35.640625 C 240.585938 35.972656 285.640625 38.164062 329.890625 42.21875 C 395.835938 48.40625 459.484375 58.882812 520.828125 73.65625 C 521.421875 73.789062 521.984375 73.925781 522.515625 74.0625 C 526.304688 74.789062 529.867188 75.753906 533.203125 76.953125 C 534.992188 77.691406 536.359375 78.859375 537.296875 80.453125 Z M 537.296875 80.453125 "/></g></g><g transform="translate(424.924987, 618.51174)"><g><path d="M 98.015625 -46.515625 C 96.421875 -45.453125 94.789062 -44.488281 93.125 -43.625 C 87.875 -40.957031 83.265625 -38.859375 79.296875 -37.328125 C 75.335938 -35.796875 70.734375 -34.234375 65.484375 -32.640625 C 57.828125 -30.578125 53.550781 -31.039062 52.65625 -34.03125 C 51.757812 -37.03125 52.972656 -41.191406 56.296875 -46.515625 C 60.890625 -54.097656 63.984375 -59.648438 65.578125 -63.171875 C 67.171875 -66.703125 66.453125 -67.914062 63.421875 -66.8125 C 60.398438 -65.71875 54.296875 -62.078125 45.109375 -55.890625 C 32.398438 -47.578125 20.691406 -38.0625 9.984375 -27.34375 C 8.585938 -25.882812 7.085938 -24.6875 5.484375 -23.75 C 3.890625 -22.820312 2.160156 -22.359375 0.296875 -22.359375 C -1.492188 -22.359375 -2.625 -22.820312 -3.09375 -23.75 C -3.5625 -24.6875 -3.160156 -25.953125 -1.890625 -27.546875 C 5.222656 -36.203125 12.375 -44.785156 19.5625 -53.296875 C 32.007812 -68.066406 44.320312 -82.773438 56.5 -97.421875 C 65.613281 -108.398438 74.660156 -119.378906 83.640625 -130.359375 C 89.097656 -136.816406 94.457031 -143.269531 99.71875 -149.71875 C 100.1875 -150.25 100.6875 -150.816406 101.21875 -151.421875 C 101.75 -152.148438 102.328125 -152.878906 102.953125 -153.609375 C 103.585938 -154.347656 104.304688 -155.148438 105.109375 -156.015625 C 105.773438 -156.742188 106.738281 -157.335938 108 -157.796875 C 109.257812 -158.265625 110.457031 -158.566406 111.59375 -158.703125 C 112.726562 -158.835938 113.5625 -158.769531 114.09375 -158.5 C 114.757812 -157.90625 115.007812 -157.273438 114.84375 -156.609375 C 114.675781 -155.941406 114.289062 -155.242188 113.6875 -154.515625 C 113.550781 -154.378906 113.421875 -154.144531 113.296875 -153.8125 C 110.492188 -149.882812 107.695312 -146.09375 104.90625 -142.4375 C 89.070312 -122.070312 72.566406 -102.007812 55.390625 -82.25 C 54.191406 -80.914062 52.726562 -79.316406 51 -77.453125 C 48.601562 -74.796875 46.304688 -72.1875 44.109375 -69.625 C 41.921875 -67.0625 40.875 -65.347656 40.96875 -64.484375 C 41.070312 -63.617188 43.285156 -64.285156 47.609375 -66.484375 C 48.941406 -67.210938 50.175781 -67.941406 51.3125 -68.671875 C 54.832031 -70.535156 58.257812 -72.300781 61.59375 -73.96875 C 64.519531 -75.5625 67.476562 -76.425781 70.46875 -76.5625 C 77.65625 -77.019531 80.453125 -73.859375 78.859375 -67.078125 C 78.191406 -64.347656 77.109375 -61.648438 75.609375 -58.984375 C 74.109375 -56.328125 72.492188 -53.703125 70.765625 -51.109375 C 70.367188 -50.367188 69.972656 -49.632812 69.578125 -48.90625 C 66.773438 -44.382812 66.15625 -41.789062 67.71875 -41.125 C 69.289062 -40.457031 71.988281 -40.820312 75.8125 -42.21875 C 79.632812 -43.613281 83.609375 -45.3125 87.734375 -47.3125 C 90.460938 -48.507812 92.875 -49.539062 94.96875 -50.40625 C 97.070312 -51.269531 98.519531 -51.632812 99.3125 -51.5 C 100.78125 -51.238281 101.265625 -50.59375 100.765625 -49.5625 C 100.265625 -48.53125 99.347656 -47.515625 98.015625 -46.515625 Z M 98.015625 -46.515625 "/></g></g><g transform="translate(501.086204, 618.51174)"><g><path d="M 70.859375 -38.328125 C 65.609375 -34.535156 59.9375 -31.289062 53.84375 -28.59375 C 47.757812 -25.894531 42.820312 -24.128906 39.03125 -23.296875 C 35.238281 -22.472656 31.507812 -21.992188 27.84375 -21.859375 C 21.851562 -21.585938 16.734375 -22.382812 12.484375 -24.25 C 5.628906 -27.507812 5.128906 -33.734375 10.984375 -42.921875 C 16.171875 -50.835938 23.140625 -57.023438 31.890625 -61.484375 C 40.640625 -65.941406 48.773438 -68.101562 56.296875 -67.96875 C 56.296875 -67.96875 56.363281 -67.96875 56.5 -67.96875 C 58.488281 -68.101562 60.25 -67.972656 61.78125 -67.578125 C 64.375 -66.515625 65.617188 -64.785156 65.515625 -62.390625 C 65.421875 -59.992188 63.910156 -57.332031 60.984375 -54.40625 C 54.398438 -47.945312 47.3125 -44.351562 39.71875 -43.625 C 34.726562 -43.15625 30.140625 -43.382812 25.953125 -44.3125 C 25.085938 -44.445312 24.222656 -44.210938 23.359375 -43.609375 C 22.492188 -43.015625 21.828125 -42.285156 21.359375 -41.421875 C 17.960938 -35.703125 18.394531 -32.039062 22.65625 -30.4375 C 27.914062 -28.375 34.140625 -28.375 41.328125 -30.4375 C 49.640625 -32.769531 58.320312 -37.160156 67.375 -43.609375 C 76.425781 -50.066406 81.398438 -53.078125 82.296875 -52.640625 C 83.191406 -52.210938 83.039062 -50.96875 81.84375 -48.90625 C 79.78125 -45.644531 76.117188 -42.117188 70.859375 -38.328125 Z M 34.140625 -54.40625 C 33.609375 -53.9375 33.15625 -53.414062 32.78125 -52.84375 C 32.414062 -52.28125 32.4375 -51.769531 32.84375 -51.3125 C 34.707031 -49.976562 37.066406 -49.492188 39.921875 -49.859375 C 42.785156 -50.222656 45.460938 -51.253906 47.953125 -52.953125 C 50.453125 -54.648438 52.035156 -56.726562 52.703125 -59.1875 C 52.835938 -60.050781 52.570312 -60.597656 51.90625 -60.828125 C 51.238281 -61.066406 50.503906 -61.117188 49.703125 -60.984375 C 44.515625 -60.117188 39.328125 -57.925781 34.140625 -54.40625 Z M 34.140625 -54.40625 "/></g></g><g transform="translate(559.180345, 618.51174)"><g><path d="M 97.21875 -49.8125 C 97.75 -48.476562 95.519531 -46.046875 90.53125 -42.515625 C 85.539062 -38.992188 80.515625 -36.035156 75.453125 -33.640625 C 70.398438 -31.242188 64.644531 -28.847656 58.1875 -26.453125 C 54 -24.859375 49.941406 -24.328125 46.015625 -24.859375 C 42.085938 -25.390625 40.921875 -27.882812 42.515625 -32.34375 C 44.117188 -36.800781 46.75 -41.222656 50.40625 -45.609375 C 54.132812 -50.140625 55.445312 -52.46875 54.34375 -52.59375 C 53.25 -52.726562 50.441406 -51.632812 45.921875 -49.3125 C 34.140625 -43.050781 22.691406 -35.894531 11.578125 -27.84375 C 8.378906 -25.1875 5.050781 -23.722656 1.59375 -23.453125 C -0.132812 -23.453125 -1.28125 -24 -1.84375 -25.09375 C -2.40625 -26.195312 -2.125 -27.378906 -1 -28.640625 C 8.851562 -39.492188 18.703125 -50.207031 28.546875 -60.78125 C 30.671875 -62.976562 33.164062 -64.34375 36.03125 -64.875 C 37.226562 -65.070312 38.140625 -64.722656 38.765625 -63.828125 C 39.398438 -62.929688 39.519531 -61.914062 39.125 -60.78125 C 38.59375 -59.71875 37.695312 -58.457031 36.4375 -57 C 35.769531 -56.132812 35.132812 -55.300781 34.53125 -54.5 C 33.9375 -53.695312 33.601562 -53.03125 33.53125 -52.5 C 33.46875 -51.96875 33.835938 -51.800781 34.640625 -52 C 35.835938 -52.53125 37.035156 -53.097656 38.234375 -53.703125 C 41.296875 -55.160156 44.222656 -56.554688 47.015625 -57.890625 C 49.546875 -59.085938 52.109375 -60.148438 54.703125 -61.078125 C 57.296875 -62.015625 59.890625 -62.648438 62.484375 -62.984375 C 66.546875 -63.242188 69.039062 -62.34375 69.96875 -60.28125 C 70.90625 -58.21875 70.070312 -55.359375 67.46875 -51.703125 C 64.875 -48.378906 62.28125 -45.085938 59.6875 -41.828125 C 56.757812 -38.765625 55.59375 -36.429688 56.1875 -34.828125 C 56.789062 -33.234375 63.015625 -35.066406 74.859375 -40.328125 L 83.9375 -44.71875 C 92.65625 -49.238281 97.082031 -50.9375 97.21875 -49.8125 Z M 97.21875 -49.8125 "/></g></g></g></svg>