<svg xmlns="http://www.w3.org/2000/svg" xmlns:xlink="http://www.w3.org/1999/xlink" width="1400" zoomAndPan="magnify" viewBox="0 0 1050 1049.999947" height="1400" preserveAspectRatio="xMidYMid meet" version="1.0"><rect x="-105" width="1260" fill="#ffffff" y="-104.999995" height="1259.999936" fill-opacity="1"/><rect x="-105" width="1260" fill="#ffffff" y="-104.999995" height="1259.999936" fill-opacity="1"/><rect x="-105" width="1260" fill="#ffffff" y="-104.999995" height="1259.999936" fill-opacity="1"/><path fill="#0277b5" d="M 962.28125 0 L 88.246094 0 C 39.921875 0 1.050781 39.394531 1.050781 87.195312 L 1.050781 962.804688 C 1.050781 1011.128906 40.445312 1050 88.246094 1050 L 961.757812 1050 C 1010.078125 1050 1048.949219 1010.605469 1048.949219 962.804688 L 1048.949219 87.195312 C 1049.476562 39.394531 1010.605469 0 962.28125 0 Z M 311.480469 866.15625 L 156.527344 866.15625 L 156.527344 400.773438 L 311.480469 400.773438 Z M 233.742188 344.570312 C 184.890625 344.570312 145.496094 305.175781 145.496094 256.328125 C 145.496094 207.480469 184.890625 168.082031 233.742188 168.082031 C 282.589844 168.082031 321.984375 207.480469 321.984375 256.328125 C 321.984375 305.175781 282.589844 344.570312 233.742188 344.570312 Z M 894.523438 866.15625 L 739.042969 866.15625 L 735.367188 589.871094 C 735.367188 589.871094 739.042969 516.332031 658.679688 516.859375 C 578.3125 517.382812 567.285156 589.871094 567.285156 589.871094 L 567.285156 866.15625 L 410.753906 866.15625 L 410.753906 400.773438 L 560.980469 400.773438 L 560.980469 464.855469 C 560.980469 464.855469 567.285156 443.847656 601.949219 419.160156 C 636.617188 394.472656 693.871094 389.21875 718.558594 390.269531 C 743.246094 391.320312 776.863281 387.117188 833.066406 425.988281 C 893.472656 467.484375 895.046875 576.214844 895.046875 576.214844 Z M 894.523438 866.15625 " fill-opacity="1" fill-rule="nonzero"/></svg>